<?xml version="1.0" encoding="utf-8"?>
<!-- Generator: Adobe Illustrator 15.1.0, SVG Export Plug-In  -->
<!DOCTYPE svg PUBLIC "-//W3C//DTD SVG 1.1//EN" "http://www.w3.org/Graphics/SVG/1.1/DTD/svg11.dtd" [
	<!ENTITY ns_flows "http://ns.adobe.com/Flows/1.0/">
]>
<svg version="1.1"
	 xmlns="http://www.w3.org/2000/svg" xmlns:xlink="http://www.w3.org/1999/xlink" xmlns:a="http://ns.adobe.com/AdobeSVGViewerExtensions/3.0/"
	 x="0px" y="0px" width="652px" height="222px" viewBox="0 0 652 222" overflow="visible" enable-background="new 0 0 652 222"
	 xml:space="preserve">
<defs>
</defs>
<rect x="120" y="118" fill="#F3901A" width="53" height="68"/>
<rect x="211" y="143" fill="#F5D328" width="53" height="43"/>
<rect x="301" y="13" fill="#008F2C" width="53" height="173"/>
<rect x="391" y="14" fill="#0B24FB" width="53" height="172"/>
<rect x="482" y="63" fill="#A653DD" width="53" height="123"/>
<rect x="573" y="177.562" fill="#E900FF" width="53" height="8.438"/>
<path fill="#333333" d="M44.106,221.676l0.249-1.069c0.283-0.01,0.669-0.041,1.157-0.095s0.864-0.125,1.128-0.213
	c0.381-0.127,0.671-0.319,0.872-0.578s0.339-0.56,0.417-0.901l3.359-14.531c0.049-0.205,0.083-0.376,0.103-0.513
	s0.029-0.239,0.029-0.308c0-0.41-0.227-0.729-0.681-0.96c-0.454-0.229-1.15-0.412-2.087-0.549l0.249-1.069h11.535l-0.249,1.069
	c-0.312,0.02-0.713,0.066-1.201,0.139c-0.488,0.074-0.854,0.149-1.099,0.228c-0.4,0.127-0.696,0.325-0.886,0.593
	c-0.19,0.27-0.325,0.57-0.403,0.904l-3.362,14.544c-0.039,0.165-0.071,0.321-0.095,0.468s-0.037,0.259-0.037,0.337
	c0,0.488,0.227,0.827,0.681,1.019c0.454,0.189,1.155,0.329,2.102,0.417l-0.249,1.069H44.106z"/>
<path fill="#333333" d="M228.428,219.581l-0.322,1.318c-0.967,0.381-1.738,0.672-2.314,0.872c-0.576,0.199-1.245,0.3-2.007,0.3
	c-1.172,0-2.083-0.286-2.732-0.856c-0.649-0.572-0.974-1.297-0.974-2.176c0-0.342,0.024-0.69,0.073-1.047s0.127-0.76,0.234-1.209
	l1.209-4.277c0.108-0.41,0.199-0.799,0.272-1.164c0.073-0.367,0.11-0.701,0.11-1.004c0-0.547-0.113-0.928-0.338-1.143
	s-0.656-0.322-1.292-0.322c-0.313,0-0.634,0.049-0.962,0.146s-0.61,0.19-0.845,0.278l0.323-1.318
	c0.792-0.322,1.549-0.598,2.273-0.827s1.408-0.345,2.053-0.345c1.164,0,2.061,0.281,2.691,0.843s0.946,1.291,0.946,2.189
	c0,0.186-0.022,0.513-0.066,0.981s-0.125,0.898-0.242,1.289l-1.205,4.263c-0.098,0.342-0.186,0.732-0.265,1.172
	c-0.078,0.439-0.117,0.771-0.117,0.996c0,0.566,0.126,0.952,0.38,1.157c0.254,0.205,0.692,0.308,1.317,0.308
	c0.292,0,0.624-0.051,0.995-0.154C227.994,219.75,228.262,219.659,228.428,219.581z M228.735,201.695
	c0,0.742-0.281,1.375-0.842,1.896c-0.562,0.523-1.238,0.784-2.029,0.784s-1.47-0.261-2.036-0.784
	c-0.566-0.521-0.85-1.154-0.85-1.896s0.283-1.377,0.85-1.904s1.245-0.791,2.036-0.791s1.467,0.264,2.029,0.791
	S228.735,200.953,228.735,201.695z"/>
<path fill="#333333" d="M239.399,219.581l-0.322,1.318c-0.967,0.381-1.738,0.672-2.314,0.872c-0.576,0.199-1.245,0.3-2.007,0.3
	c-1.172,0-2.083-0.286-2.732-0.856c-0.649-0.572-0.974-1.297-0.974-2.176c0-0.342,0.024-0.69,0.073-1.047s0.127-0.76,0.234-1.209
	l1.209-4.277c0.108-0.41,0.199-0.799,0.272-1.164c0.073-0.367,0.11-0.701,0.11-1.004c0-0.547-0.113-0.928-0.338-1.143
	s-0.656-0.322-1.292-0.322c-0.313,0-0.634,0.049-0.962,0.146s-0.61,0.19-0.845,0.278l0.323-1.318
	c0.792-0.322,1.549-0.598,2.273-0.827s1.408-0.345,2.053-0.345c1.164,0,2.061,0.281,2.691,0.843s0.946,1.291,0.946,2.189
	c0,0.186-0.022,0.513-0.066,0.981s-0.125,0.898-0.242,1.289l-1.205,4.263c-0.098,0.342-0.186,0.732-0.265,1.172
	c-0.078,0.439-0.117,0.771-0.117,0.996c0,0.566,0.126,0.952,0.38,1.157c0.254,0.205,0.692,0.308,1.317,0.308
	c0.292,0,0.624-0.051,0.995-0.154C238.965,219.75,239.233,219.659,239.399,219.581z M239.707,201.695
	c0,0.742-0.281,1.375-0.842,1.896c-0.562,0.523-1.238,0.784-2.029,0.784s-1.47-0.261-2.036-0.784
	c-0.566-0.521-0.85-1.154-0.85-1.896s0.283-1.377,0.85-1.904s1.245-0.791,2.036-0.791s1.467,0.264,2.029,0.791
	S239.707,200.953,239.707,201.695z"/>
<path fill="#333333" d="M250.371,219.581l-0.322,1.318c-0.967,0.381-1.738,0.672-2.314,0.872c-0.576,0.199-1.245,0.3-2.007,0.3
	c-1.172,0-2.083-0.286-2.732-0.856c-0.649-0.572-0.974-1.297-0.974-2.176c0-0.342,0.024-0.69,0.073-1.047s0.127-0.76,0.234-1.209
	l1.209-4.277c0.108-0.41,0.199-0.799,0.272-1.164c0.073-0.367,0.11-0.701,0.11-1.004c0-0.547-0.113-0.928-0.338-1.143
	s-0.656-0.322-1.292-0.322c-0.313,0-0.634,0.049-0.962,0.146s-0.61,0.19-0.845,0.278l0.323-1.318
	c0.792-0.322,1.549-0.598,2.273-0.827s1.408-0.345,2.053-0.345c1.164,0,2.061,0.281,2.691,0.843s0.946,1.291,0.946,2.189
	c0,0.186-0.022,0.513-0.066,0.981s-0.125,0.898-0.242,1.289l-1.205,4.263c-0.098,0.342-0.186,0.732-0.265,1.172
	c-0.078,0.439-0.117,0.771-0.117,0.996c0,0.566,0.126,0.952,0.38,1.157c0.254,0.205,0.692,0.308,1.317,0.308
	c0.292,0,0.624-0.051,0.995-0.154C249.937,219.75,250.205,219.659,250.371,219.581z M250.679,201.695
	c0,0.742-0.281,1.375-0.842,1.896c-0.562,0.523-1.238,0.784-2.029,0.784s-1.47-0.261-2.036-0.784
	c-0.566-0.521-0.85-1.154-0.85-1.896s0.283-1.377,0.85-1.904s1.245-0.791,2.036-0.791s1.467,0.264,2.029,0.791
	S250.679,200.953,250.679,201.695z"/>
<path fill="#333333" d="M306.679,221.676l0.249-1.069c0.283-0.01,0.669-0.041,1.157-0.095s0.864-0.125,1.128-0.213
	c0.381-0.127,0.671-0.319,0.872-0.578s0.339-0.56,0.417-0.901l3.359-14.531c0.049-0.205,0.083-0.376,0.103-0.513
	s0.029-0.239,0.029-0.308c0-0.41-0.227-0.729-0.681-0.96c-0.454-0.229-1.15-0.412-2.087-0.549l0.249-1.069h11.535l-0.249,1.069
	c-0.312,0.02-0.713,0.066-1.201,0.139c-0.488,0.074-0.854,0.149-1.099,0.228c-0.4,0.127-0.696,0.325-0.886,0.593
	c-0.19,0.27-0.325,0.57-0.403,0.904l-3.362,14.544c-0.039,0.165-0.071,0.321-0.095,0.468s-0.037,0.259-0.037,0.337
	c0,0.488,0.227,0.827,0.681,1.019c0.454,0.189,1.155,0.329,2.102,0.417l-0.249,1.069H306.679z"/>
<path fill="#333333" d="M347.27,201.959c-0.303,0.029-0.61,0.096-0.923,0.197c-0.312,0.104-0.654,0.242-1.025,0.418
	c-0.469,0.225-0.85,0.479-1.143,0.762s-0.61,0.674-0.952,1.172c-0.508,0.742-1.132,1.688-1.875,2.834
	c-0.742,1.148-1.738,2.674-2.987,4.578c-1.279,1.963-2.426,3.733-3.442,5.311c-1.015,1.577-2.016,3.137-3.002,4.68h-2.947
	c-0.762-4.326-1.406-7.954-1.934-10.884s-0.933-5.132-1.216-6.606c-0.117-0.527-0.266-0.916-0.447-1.164
	c-0.181-0.25-0.442-0.486-0.784-0.711c-0.273-0.176-0.532-0.305-0.776-0.389c-0.244-0.082-0.557-0.148-0.938-0.197l0.249-1.069
	h11.031l-0.264,1.069c-0.801,0.088-1.396,0.179-1.787,0.271s-0.679,0.188-0.864,0.285c-0.176,0.088-0.273,0.19-0.293,0.308
	s-0.029,0.22-0.029,0.308c0,0.215,0.02,0.435,0.059,0.659s0.088,0.532,0.146,0.922c0.186,1.151,0.464,2.707,0.836,4.668
	c0.371,1.961,0.821,4.474,1.349,7.536c1.287-2.028,2.476-3.919,3.568-5.67c1.092-1.75,2.135-3.431,3.129-5.04
	c0.419-0.683,0.783-1.322,1.091-1.918s0.462-1.001,0.462-1.216c0-0.293-0.251-0.537-0.755-0.732s-1.229-0.322-2.176-0.381
	l0.264-1.069h8.636L347.27,201.959z"/>
<path fill="#333333" d="M429.415,201.959c-0.303,0.029-0.61,0.096-0.923,0.197c-0.312,0.104-0.654,0.242-1.025,0.418
	c-0.469,0.225-0.85,0.479-1.143,0.762s-0.61,0.674-0.952,1.172c-0.508,0.742-1.132,1.688-1.875,2.834
	c-0.742,1.148-1.738,2.674-2.987,4.578c-1.279,1.963-2.426,3.733-3.442,5.311c-1.015,1.577-2.016,3.137-3.002,4.68h-2.947
	c-0.762-4.326-1.406-7.954-1.934-10.884s-0.933-5.132-1.216-6.606c-0.117-0.527-0.266-0.916-0.447-1.164
	c-0.181-0.25-0.442-0.486-0.784-0.711c-0.273-0.176-0.532-0.305-0.776-0.389c-0.244-0.082-0.557-0.148-0.938-0.197l0.249-1.069
	h11.031l-0.264,1.069c-0.801,0.088-1.396,0.179-1.787,0.271s-0.679,0.188-0.864,0.285c-0.176,0.088-0.273,0.19-0.293,0.308
	s-0.029,0.22-0.029,0.308c0,0.215,0.02,0.435,0.059,0.659s0.088,0.532,0.146,0.922c0.186,1.151,0.464,2.707,0.836,4.668
	c0.371,1.961,0.821,4.474,1.349,7.536c1.287-2.028,2.476-3.919,3.568-5.67c1.092-1.75,2.135-3.431,3.129-5.04
	c0.419-0.683,0.783-1.322,1.091-1.918s0.462-1.001,0.462-1.216c0-0.293-0.251-0.537-0.755-0.732s-1.229-0.322-2.176-0.381
	l0.264-1.069h8.636L429.415,201.959z"/>
<path fill="#333333" d="M509.444,210.455c0,1.377-0.232,2.773-0.696,4.189s-1.116,2.671-1.956,3.765
	c-0.996,1.279-2.1,2.222-3.311,2.827s-2.471,0.908-3.779,0.908c-1.738,0-3.12-0.406-4.146-1.217
	c-1.025-0.812-1.538-1.976-1.538-3.49c0-0.47,0.078-0.973,0.234-1.511s0.352-1.168,0.586-1.892c0.195-0.616,0.378-1.225,0.549-1.826
	c0.171-0.601,0.256-1.171,0.256-1.708c0-0.528-0.117-0.904-0.352-1.13c-0.234-0.225-0.654-0.337-1.26-0.337
	c-0.312,0-0.632,0.049-0.959,0.146s-0.608,0.19-0.842,0.278l0.322-1.318c0.791-0.322,1.547-0.598,2.27-0.828
	c0.723-0.229,1.406-0.344,2.05-0.344c1.162,0,2.057,0.291,2.687,0.873c0.63,0.581,0.945,1.303,0.945,2.163
	c0,0.635-0.085,1.31-0.256,2.023c-0.17,0.714-0.349,1.354-0.534,1.921c-0.166,0.509-0.339,1.093-0.52,1.753
	c-0.181,0.66-0.271,1.186-0.271,1.576c0,0.831,0.2,1.496,0.601,1.994c0.401,0.499,1.045,0.748,1.934,0.748
	c1.329,0,2.481-0.495,3.458-1.487c0.977-0.99,1.465-2.326,1.465-4.006c0-0.166-0.01-0.347-0.029-0.542s-0.059-0.415-0.117-0.659
	c-0.107-0.225-0.317-0.464-0.63-0.718s-0.576-0.488-0.791-0.703c-0.283-0.283-0.532-0.617-0.747-1.003s-0.322-0.887-0.322-1.502
	c0-0.518,0.1-0.938,0.3-1.26s0.442-0.586,0.725-0.791c0.234-0.166,0.515-0.298,0.842-0.396s0.632-0.146,0.916-0.146
	c0.908,0,1.621,0.325,2.139,0.974C509.186,208.432,509.444,209.322,509.444,210.455z"/>
<path fill="#333333" d="M520.548,219.581l-0.322,1.318c-0.967,0.381-1.738,0.672-2.314,0.872c-0.576,0.199-1.245,0.3-2.007,0.3
	c-1.172,0-2.083-0.286-2.732-0.856c-0.649-0.572-0.974-1.297-0.974-2.176c0-0.342,0.024-0.69,0.073-1.047s0.127-0.76,0.234-1.209
	l1.209-4.277c0.108-0.41,0.199-0.799,0.272-1.164c0.073-0.367,0.11-0.701,0.11-1.004c0-0.547-0.113-0.928-0.338-1.143
	s-0.656-0.322-1.292-0.322c-0.313,0-0.634,0.049-0.962,0.146s-0.61,0.19-0.845,0.278l0.323-1.318
	c0.792-0.322,1.549-0.598,2.273-0.827s1.408-0.345,2.053-0.345c1.164,0,2.061,0.281,2.691,0.843s0.946,1.291,0.946,2.189
	c0,0.186-0.022,0.513-0.066,0.981s-0.125,0.898-0.242,1.289l-1.205,4.263c-0.098,0.342-0.186,0.732-0.265,1.172
	c-0.078,0.439-0.117,0.771-0.117,0.996c0,0.566,0.126,0.952,0.38,1.157c0.254,0.205,0.692,0.308,1.317,0.308
	c0.292,0,0.624-0.051,0.995-0.154C520.114,219.75,520.382,219.659,520.548,219.581z M520.855,201.695
	c0,0.742-0.281,1.375-0.842,1.896c-0.562,0.523-1.238,0.784-2.029,0.784s-1.47-0.261-2.036-0.784
	c-0.566-0.521-0.85-1.154-0.85-1.896s0.283-1.377,0.85-1.904s1.245-0.791,2.036-0.791s1.467,0.264,2.029,0.791
	S520.855,200.953,520.855,201.695z"/>
<rect fill="#333333" width="3" height="189"/>
<rect x="0.002" y="186" fill="#333333" width="651.998" height="3"/>
<rect x="30" y="17" fill="#C82506" width="53" height="169"/>
<path fill="#333333" d="M594.617,210.45c0,1.377-0.232,2.773-0.695,4.189c-0.465,1.416-1.116,2.671-1.956,3.765
	c-0.996,1.279-2.1,2.222-3.311,2.827s-2.471,0.908-3.779,0.908c-1.738,0-3.12-0.406-4.146-1.217
	c-1.025-0.812-1.538-1.976-1.538-3.49c0-0.47,0.078-0.973,0.234-1.511s0.352-1.168,0.586-1.892c0.195-0.616,0.378-1.225,0.55-1.826
	c0.17-0.601,0.256-1.171,0.256-1.708c0-0.528-0.117-0.904-0.352-1.13c-0.234-0.225-0.654-0.337-1.26-0.337
	c-0.312,0-0.633,0.049-0.959,0.146c-0.328,0.098-0.608,0.19-0.843,0.278l0.322-1.318c0.79-0.322,1.548-0.598,2.27-0.828
	c0.723-0.229,1.405-0.344,2.05-0.344c1.162,0,2.058,0.291,2.687,0.873c0.631,0.581,0.945,1.303,0.945,2.163
	c0,0.635-0.086,1.31-0.256,2.023c-0.171,0.714-0.35,1.354-0.534,1.921c-0.166,0.509-0.339,1.093-0.52,1.753
	s-0.271,1.186-0.271,1.576c0,0.831,0.201,1.496,0.601,1.994c0.401,0.499,1.046,0.748,1.935,0.748c1.329,0,2.48-0.495,3.458-1.487
	c0.977-0.99,1.465-2.326,1.465-4.006c0-0.166-0.01-0.347-0.029-0.542s-0.059-0.415-0.117-0.659c-0.107-0.225-0.317-0.464-0.63-0.718
	s-0.576-0.488-0.791-0.703c-0.283-0.283-0.532-0.617-0.747-1.003s-0.322-0.887-0.322-1.502c0-0.518,0.101-0.938,0.3-1.26
	c0.201-0.322,0.442-0.586,0.726-0.791c0.234-0.166,0.515-0.298,0.843-0.396c0.326-0.098,0.632-0.146,0.915-0.146
	c0.908,0,1.621,0.325,2.139,0.974C594.358,208.427,594.617,209.317,594.617,210.45z"/>
<path fill="#333333" d="M605.721,219.576l-0.322,1.318c-0.967,0.381-1.738,0.672-2.314,0.872c-0.576,0.199-1.245,0.3-2.007,0.3
	c-1.172,0-2.083-0.286-2.731-0.856c-0.65-0.572-0.975-1.297-0.975-2.176c0-0.342,0.024-0.69,0.073-1.047s0.127-0.76,0.234-1.209
	l1.209-4.277c0.108-0.41,0.199-0.799,0.272-1.164c0.073-0.367,0.109-0.701,0.109-1.004c0-0.547-0.112-0.928-0.338-1.143
	c-0.225-0.215-0.655-0.322-1.292-0.322c-0.313,0-0.634,0.049-0.962,0.146s-0.609,0.19-0.845,0.278l0.323-1.318
	c0.791-0.322,1.549-0.598,2.272-0.827s1.408-0.345,2.053-0.345c1.164,0,2.061,0.281,2.691,0.843s0.945,1.291,0.945,2.189
	c0,0.186-0.021,0.513-0.065,0.981s-0.124,0.898-0.241,1.289l-1.205,4.263c-0.098,0.342-0.186,0.732-0.265,1.172
	c-0.078,0.439-0.117,0.771-0.117,0.996c0,0.566,0.126,0.952,0.38,1.157s0.692,0.308,1.316,0.308c0.293,0,0.625-0.051,0.995-0.154
	C605.286,219.745,605.555,219.654,605.721,219.576z M606.028,201.69c0,0.742-0.281,1.375-0.842,1.896
	c-0.562,0.523-1.238,0.784-2.029,0.784s-1.47-0.261-2.036-0.784c-0.566-0.521-0.85-1.154-0.85-1.896s0.283-1.377,0.85-1.904
	s1.245-0.791,2.036-0.791s1.467,0.264,2.029,0.791C605.747,200.313,606.028,200.948,606.028,201.69z"/>
<path fill="#333333" d="M616.692,219.576l-0.322,1.318c-0.967,0.381-1.738,0.672-2.314,0.872c-0.576,0.199-1.245,0.3-2.007,0.3
	c-1.172,0-2.083-0.286-2.731-0.856c-0.65-0.572-0.975-1.297-0.975-2.176c0-0.342,0.024-0.69,0.073-1.047s0.127-0.76,0.234-1.209
	l1.209-4.277c0.108-0.41,0.199-0.799,0.272-1.164c0.073-0.367,0.11-0.701,0.11-1.004c0-0.547-0.113-0.928-0.339-1.143
	c-0.225-0.215-0.655-0.322-1.292-0.322c-0.313,0-0.634,0.049-0.962,0.146s-0.609,0.19-0.845,0.278l0.323-1.318
	c0.791-0.322,1.549-0.598,2.272-0.827s1.408-0.345,2.053-0.345c1.164,0,2.061,0.281,2.691,0.843s0.945,1.291,0.945,2.189
	c0,0.186-0.021,0.513-0.065,0.981s-0.124,0.898-0.241,1.289l-1.205,4.263c-0.098,0.342-0.186,0.732-0.265,1.172
	c-0.078,0.439-0.117,0.771-0.117,0.996c0,0.566,0.126,0.952,0.38,1.157s0.692,0.308,1.316,0.308c0.293,0,0.625-0.051,0.995-0.154
	C616.258,219.745,616.526,219.654,616.692,219.576z M617,201.69c0,0.742-0.281,1.375-0.842,1.896
	c-0.562,0.523-1.238,0.784-2.029,0.784s-1.47-0.261-2.036-0.784c-0.566-0.521-0.85-1.154-0.85-1.896s0.283-1.377,0.85-1.904
	s1.245-0.791,2.036-0.791s1.467,0.264,2.029,0.791C616.719,200.313,617,200.948,617,201.69z"/>
<path fill="#333333" d="M143.553,218.581l-0.322,1.318c-0.967,0.381-1.738,0.672-2.314,0.872c-0.576,0.199-1.245,0.3-2.007,0.3
	c-1.172,0-2.083-0.286-2.732-0.856c-0.649-0.572-0.974-1.297-0.974-2.176c0-0.342,0.024-0.69,0.073-1.047s0.127-0.76,0.234-1.209
	l1.209-4.277c0.108-0.41,0.199-0.799,0.272-1.164c0.073-0.367,0.11-0.701,0.11-1.004c0-0.547-0.113-0.928-0.338-1.143
	s-0.656-0.322-1.292-0.322c-0.313,0-0.634,0.049-0.962,0.146s-0.61,0.19-0.845,0.278l0.323-1.318
	c0.792-0.322,1.549-0.598,2.273-0.827s1.408-0.345,2.053-0.345c1.164,0,2.061,0.281,2.691,0.843s0.946,1.291,0.946,2.189
	c0,0.186-0.022,0.513-0.066,0.981s-0.125,0.898-0.242,1.289l-1.205,4.263c-0.098,0.342-0.186,0.732-0.265,1.172
	c-0.078,0.439-0.117,0.771-0.117,0.996c0,0.566,0.126,0.952,0.38,1.157c0.254,0.205,0.692,0.308,1.317,0.308
	c0.292,0,0.624-0.051,0.995-0.154C143.119,218.75,143.387,218.659,143.553,218.581z M143.86,200.695
	c0,0.742-0.281,1.375-0.842,1.896c-0.562,0.523-1.238,0.784-2.029,0.784s-1.47-0.261-2.036-0.784
	c-0.566-0.521-0.85-1.154-0.85-1.896s0.283-1.377,0.85-1.904s1.245-0.791,2.036-0.791s1.467,0.264,2.029,0.791
	S143.86,199.953,143.86,200.695z"/>
<path fill="#333333" d="M154.524,218.581l-0.322,1.318c-0.967,0.381-1.738,0.672-2.314,0.872c-0.576,0.199-1.245,0.3-2.007,0.3
	c-1.172,0-2.083-0.286-2.732-0.856c-0.649-0.572-0.974-1.297-0.974-2.176c0-0.342,0.024-0.69,0.073-1.047s0.127-0.76,0.234-1.209
	l1.209-4.277c0.108-0.41,0.199-0.799,0.272-1.164c0.073-0.367,0.11-0.701,0.11-1.004c0-0.547-0.113-0.928-0.338-1.143
	s-0.656-0.322-1.292-0.322c-0.313,0-0.634,0.049-0.962,0.146s-0.61,0.19-0.845,0.278l0.323-1.318
	c0.792-0.322,1.549-0.598,2.273-0.827s1.408-0.345,2.053-0.345c1.164,0,2.061,0.281,2.691,0.843s0.946,1.291,0.946,2.189
	c0,0.186-0.022,0.513-0.066,0.981s-0.125,0.898-0.242,1.289l-1.205,4.263c-0.098,0.342-0.186,0.732-0.265,1.172
	c-0.078,0.439-0.117,0.771-0.117,0.996c0,0.566,0.126,0.952,0.38,1.157c0.254,0.205,0.692,0.308,1.317,0.308
	c0.292,0,0.624-0.051,0.995-0.154C154.09,218.75,154.358,218.659,154.524,218.581z M154.832,200.695
	c0,0.742-0.281,1.375-0.842,1.896c-0.562,0.523-1.238,0.784-2.029,0.784s-1.47-0.261-2.036-0.784
	c-0.566-0.521-0.85-1.154-0.85-1.896s0.283-1.377,0.85-1.904S151.17,198,151.961,198s1.467,0.264,2.029,0.791
	S154.832,199.953,154.832,200.695z"/>
</svg>
